<svg xmlns="http://www.w3.org/2000/svg" width="12" height="11" viewBox="-0.2 0.4 12.5 10.7" fill="none"><path d="M2.05749 5.61428C2.05749 5.93711 2.05749 6.21808 2.05749 6.49906C2.05749 7.78437 2.05749 9.07567 2.04506 10.361C2.04506 10.6479 1.87101 10.7974 1.56643 10.7974C1.21211 10.7974 0.864022 10.7974 0.50971 10.7974C0.180263 10.7974 0.00621257 10.636 0.00621257 10.3251C0.00621257 8.01155 0.00621257 5.692 0.00621257 3.37843C0.00621257 2.72083 0.00621598 2.06323 0 1.4116C0 1.16649 0.0248626 0.939323 0.304582 0.831715C0.472413 0.765954 0.615381 0.807802 0.745916 0.909432C1.07536 1.16649 1.40481 1.41758 1.72804 1.68062C2.49261 2.31431 3.25096 2.95398 4.00309 3.59963C4.61226 4.12571 5.21521 4.66375 5.81816 5.18983C6.38382 5.68004 6.95569 6.17026 7.52756 6.66047C7.71404 6.82188 7.75133 6.82188 7.87565 6.61264C8.06835 6.2958 8.27969 5.98493 8.44131 5.65613C8.59671 5.35124 9.05669 5.33929 9.23073 5.63222C9.76531 6.54688 10.331 7.44959 10.878 8.36426C11.2199 8.93817 11.5555 9.51208 11.8912 10.092C11.972 10.2235 12.0404 10.361 11.972 10.5224C11.8912 10.7197 11.7296 10.7914 11.5306 10.7974C11.3317 10.8034 11.1328 10.7974 10.9339 10.7974C9.35505 10.7974 7.78241 10.7974 6.20355 10.7974C6.10409 10.7974 5.99842 10.7795 5.9114 10.7436C5.68141 10.6479 5.59438 10.4507 5.70006 10.2414C5.81194 10.0142 5.9487 9.80501 6.07923 9.58979C6.16626 9.44632 6.24706 9.29686 6.3403 9.15936C6.39003 9.07567 6.37138 9.02784 6.29057 8.96806C5.70627 8.51371 5.1344 8.05339 4.55632 7.59307C3.77932 6.97134 3.00232 6.34363 2.21911 5.72189C2.18181 5.692 2.14451 5.67407 2.06371 5.62026L2.05749 5.61428Z" fill="#EA757E" stroke="#EA757E" stroke-width="0.02" stroke-linejoin="round"></path></svg>